<svg width="56" height="56" viewBox="0 0 56 56" fill="none" xmlns="http://www.w3.org/2000/svg">
<circle cx="28" cy="28" r="28" fill="#8732C9"/>
<path d="M22.1663 35.0002C21.8358 35.0002 21.5587 34.8884 21.3351 34.6647C21.1115 34.4411 20.9997 34.1641 20.9997 33.8335V31.5002H36.1663V21.0002H38.4997C38.8302 21.0002 39.1073 21.112 39.3309 21.3356C39.5545 21.5592 39.6663 21.8363 39.6663 22.1668V39.6668L34.9997 35.0002H22.1663ZM16.333 33.8335V17.5002C16.333 17.1696 16.4448 16.8925 16.6684 16.6689C16.892 16.4453 17.1691 16.3335 17.4997 16.3335H32.6663C32.9969 16.3335 33.274 16.4453 33.4976 16.6689C33.7212 16.8925 33.833 17.1696 33.833 17.5002V28.0002C33.833 28.3307 33.7212 28.6078 33.4976 28.8314C33.274 29.055 32.9969 29.1668 32.6663 29.1668H20.9997L16.333 33.8335ZM31.4997 26.8335V18.6668H18.6663V26.8335H31.4997Z" fill="#FDFDFD"/>
</svg>
