<svg
              xmlns="http://www.w3.org/2000/svg"
              width="12"
              height="13"
              viewBox="0 0 12 13"
              fill="none"
            >
              <path
                d="M3.19929 10.9063C3.19929 10.7051 3.19929 10.5039 3.19929 10.3027C3.20072 10.2945 3.20043 10.2861 3.19844 10.278C3.19645 10.2699 3.1928 10.2622 3.18772 10.2556C3.18264 10.2489 3.17623 10.2434 3.1689 10.2393C3.16157 10.2352 3.15346 10.2326 3.14509 10.2317C2.64185 10.0901 2.17738 9.83772 1.78627 9.49347C1.5013 9.23661 1.26403 8.9322 1.08527 8.59408C0.833293 8.10567 0.665603 7.57891 0.589145 7.03564C0.494413 6.35416 0.461513 5.66564 0.49084 4.97834C0.497271 4.65792 0.513808 4.34113 0.550558 4.0207C0.609167 3.41179 0.764189 2.81583 1.00993 2.25471C1.31337 1.56478 1.86386 1.0106 2.55525 0.698992C3.02623 0.485442 3.52172 0.329542 4.03075 0.234735C4.52995 0.141049 5.03537 0.0835478 5.543 0.0626872C6.00059 0.046654 6.45869 0.053338 6.9156 0.0827139C7.56955 0.110064 8.21758 0.217383 8.84496 0.402232C9.31012 0.535088 9.75263 0.736057 10.1578 0.998483C10.5527 1.26703 10.872 1.63074 11.0858 2.05535C11.3371 2.55127 11.5079 3.08336 11.592 3.632C11.6466 3.95773 11.6825 4.28628 11.6995 4.61604C11.7234 5.02477 11.7206 5.43532 11.705 5.84223C11.6894 6.24913 11.6545 6.64421 11.6039 7.04292C11.5401 7.64136 11.3544 8.22075 11.0582 8.74611C10.6727 9.41069 10.055 9.91256 9.32179 10.1571C8.82042 10.331 8.30273 10.4549 7.77647 10.5267C7.39151 10.5795 7.00564 10.6177 6.61793 10.6332C6.32118 10.6468 6.02442 10.6432 5.72767 10.6386C5.55954 10.6386 5.39233 10.6222 5.22512 10.6077C5.2087 10.6046 5.19174 10.6064 5.17637 10.6129C5.161 10.6194 5.14791 10.6302 5.13876 10.6441C4.80066 11.0465 4.4497 11.4379 4.09598 11.8275C4.03155 11.8986 3.95695 11.9599 3.87457 12.0096C3.82049 12.0447 3.75882 12.0668 3.69455 12.074C3.63027 12.0811 3.5652 12.0733 3.50457 12.0509C3.44394 12.0286 3.38946 11.9925 3.34553 11.9454C3.30159 11.8984 3.26944 11.8418 3.25166 11.7802C3.21665 11.6707 3.19929 11.5564 3.20021 11.4415C3.19929 11.2613 3.19929 11.0838 3.19929 10.9063ZM3.60813 11.67L3.65131 11.63L4.41846 10.7861C4.71368 10.4614 5.0086 10.1364 5.30321 9.81116C5.31769 9.79132 5.33723 9.77564 5.35983 9.76573C5.38242 9.75581 5.40727 9.75202 5.43183 9.75473C5.53198 9.76474 5.63212 9.76838 5.73318 9.76929C6.0823 9.76929 6.43143 9.76929 6.78055 9.74471C7.09751 9.72013 7.41356 9.6819 7.72777 9.63274C8.06607 9.57439 8.40097 9.49812 8.73104 9.40426C9.46603 9.20854 10.0347 8.7898 10.3921 8.11162C10.6031 7.69467 10.7354 7.24302 10.7826 6.77893C10.8384 6.34152 10.8719 5.90158 10.8827 5.46081C10.899 4.90711 10.8609 4.35315 10.7688 3.80678C10.705 3.41093 10.5901 3.02483 10.427 2.65797C10.2194 2.20282 9.9254 1.82595 9.47246 1.58381C8.77789 1.2124 8.02636 1.04673 7.25186 0.96207C7.03228 0.938402 6.8127 0.925658 6.59221 0.917465C6.14072 0.894403 5.68827 0.896834 5.23706 0.924748C4.91257 0.948609 4.58981 0.991775 4.27054 1.05401C3.80102 1.13881 3.34681 1.2922 2.92275 1.50916C2.67691 1.63225 2.45387 1.79568 2.26309 1.99254C1.95391 2.33494 1.72711 2.74235 1.59976 3.18413C1.44869 3.69864 1.36622 4.23053 1.35446 4.76624C1.3249 5.30196 1.33165 5.83903 1.37467 6.37385C1.40144 6.69212 1.45522 7.0076 1.53545 7.31692C1.65482 7.79896 1.88639 8.24664 2.21164 8.62412C2.56279 9.00925 3.01663 9.2882 3.52085 9.42884C3.58424 9.44795 3.61273 9.4698 3.61273 9.5408C3.60721 9.80297 3.61273 10.0651 3.61273 10.3273L3.60813 11.67Z"
                fill="white"
              />
              <path
                d="M2.96466 3.53934C2.95823 3.33998 3.06756 3.19524 3.19986 3.06507C3.37434 2.89945 3.56658 2.75324 3.77315 2.62903C3.86734 2.57147 3.97934 2.54954 4.08855 2.56727C4.19776 2.585 4.29684 2.64119 4.36758 2.72552C4.61751 2.98583 4.84121 3.26967 5.0355 3.57302C5.13172 3.70947 5.20437 3.86083 5.25049 4.02089C5.26892 4.08335 5.27012 4.14957 5.25396 4.21264C5.2378 4.27572 5.20488 4.33336 5.15861 4.37955C5.05262 4.48263 4.93966 4.57844 4.82052 4.6663C4.76048 4.7137 4.71585 4.77755 4.69216 4.8499C4.66847 4.92225 4.66678 4.99991 4.6873 5.0732C4.76088 5.41737 4.92762 5.7352 5.16964 5.99261C5.46372 6.34834 5.84263 6.62584 6.27213 6.80006C6.37767 6.85382 6.49859 6.8702 6.61482 6.84648C6.67848 6.82927 6.73505 6.79265 6.77652 6.7418C6.84083 6.66078 6.91066 6.58249 6.96854 6.49601C7.04361 6.38814 7.15823 6.31359 7.28798 6.28825C7.41773 6.26291 7.55234 6.28879 7.66311 6.36038C7.97453 6.53941 8.26856 6.74663 8.54142 6.97939C8.60573 7.034 8.6728 7.0868 8.73711 7.14233C8.81321 7.19983 8.86817 7.28048 8.89356 7.3719C8.91895 7.46333 8.91337 7.56048 8.87768 7.64846C8.82092 7.79641 8.73818 7.93325 8.6333 8.05264C8.50296 8.23213 8.33694 8.3833 8.14544 8.49687C8.0539 8.55013 7.95105 8.58141 7.84511 8.58821C7.73918 8.59501 7.63311 8.57713 7.5354 8.53601C6.79207 8.23949 6.09753 7.83481 5.47466 7.33532C4.86544 6.8384 4.33304 6.25568 3.89442 5.60573C3.52536 5.06769 3.23174 4.48247 3.02162 3.86614C2.99925 3.79159 2.98085 3.71593 2.9665 3.63947C2.96241 3.60624 2.9618 3.57269 2.96466 3.53934Z"
                fill="white"
              />
              <path
                d="M6.1367 2.5706C6.75862 2.582 7.35677 2.80929 7.82688 3.21287C8.29699 3.61645 8.60924 4.1707 8.70918 4.77901C8.74942 5.00017 8.77093 5.22428 8.77349 5.44899C8.77349 5.50179 8.75971 5.54002 8.70275 5.54549C8.64579 5.55095 8.63109 5.5027 8.63109 5.45446C8.63962 4.99992 8.54545 4.54924 8.35547 4.13542C8.19547 3.79539 7.95846 3.49652 7.66287 3.26206C7.36728 3.0276 7.02108 2.86387 6.6512 2.78362C6.45564 2.73876 6.25566 2.71555 6.05494 2.71443C6.03539 2.71477 6.0159 2.71231 5.99705 2.70715C5.98101 2.70267 5.96735 2.69219 5.95896 2.67793C5.95056 2.66366 5.94808 2.64673 5.95204 2.63068C5.95215 2.62307 5.9538 2.61556 5.95688 2.60859C5.95995 2.60162 5.9644 2.59532 5.96996 2.59007C5.97552 2.58481 5.98208 2.58071 5.98925 2.57799C5.99643 2.57528 6.00408 2.574 6.01175 2.57425C6.0531 2.56878 6.09536 2.5706 6.1367 2.5706Z"
                fill="white"
              />
              <path
                d="M7.91083 5.03934C7.90775 4.78645 7.84489 4.53779 7.7273 4.3133C7.60971 4.08882 7.44066 3.89477 7.23372 3.74671C6.99219 3.5786 6.7114 3.47428 6.41787 3.44358C6.36826 3.4372 6.31865 3.43447 6.26812 3.42901C6.21759 3.42355 6.18727 3.40261 6.19186 3.35164C6.19646 3.30066 6.22861 3.28245 6.28374 3.28609C7.09774 3.33525 7.79048 3.79131 8.00362 4.64063C8.04261 4.80439 8.06204 4.97213 8.0615 5.14039C8.0615 5.15586 8.0615 5.17134 8.0615 5.1859C8.0615 5.23142 8.0321 5.26146 7.98709 5.26055C7.9771 5.26022 7.96729 5.25787 7.95825 5.25366C7.94921 5.24944 7.94114 5.24344 7.93452 5.23603C7.9279 5.22862 7.92287 5.21995 7.91975 5.21055C7.91662 5.20115 7.91546 5.19121 7.91634 5.18135C7.90899 5.13857 7.91083 5.09487 7.91083 5.03934Z"
                fill="white"
              />
              <path
                d="M6.48425 4.02534C6.93076 4.05538 7.24222 4.27203 7.32766 4.74266C7.33802 4.80295 7.34538 4.86371 7.34971 4.92472C7.34971 4.97388 7.33868 5.01575 7.28448 5.01575C7.23027 5.01575 7.2119 4.97934 7.21006 4.92472C7.20955 4.74432 7.15346 4.56837 7.04928 4.42041C6.9398 4.2864 6.78262 4.19909 6.61012 4.17645C6.57155 4.1693 6.53259 4.16444 6.49344 4.16188C6.42913 4.16188 6.3933 4.13002 6.40157 4.08087C6.40984 4.03171 6.44842 4.02261 6.48425 4.02534Z"
                fill="white"
              />
            </svg>