<svg width="52" height="52" viewBox="0 0 52 52" fill="none" xmlns="http://www.w3.org/2000/svg">
<path d="M35.3385 40.7161C33.6062 42.4048 31.7148 42.1382 29.894 41.3383C27.9672 40.5206 26.1995 40.485 24.1667 41.3383C21.6212 42.4403 20.2778 42.1204 18.7575 40.7161C10.1312 31.775 11.4039 18.159 21.197 17.6613C23.5833 17.7857 25.245 18.9766 26.6415 19.0833C28.7273 18.6567 30.7248 17.4302 32.9521 17.5902C35.6214 17.8035 37.6365 18.87 38.9623 20.7897C33.4471 24.1138 34.7552 31.4195 39.8108 33.4637C38.8032 36.13 37.4951 38.7786 35.3209 40.7339L35.3385 40.7161ZM26.4647 17.5546C26.1995 13.5907 29.3991 10.32 33.0759 10C33.5885 14.5861 28.9395 17.999 26.4647 17.5546Z" fill="#28003E"/>
</svg>
