<svg width="32" height="32" viewBox="0 0 32 32" fill="none" xmlns="http://www.w3.org/2000/svg">
<path d="M21.7468 25.0565C20.6807 26.0957 19.5168 25.9316 18.3963 25.4394C17.2106 24.9362 16.1228 24.9143 14.8718 25.4394C13.3054 26.1176 12.4786 25.9207 11.5431 25.0565C6.23456 19.5543 7.01779 11.1752 13.0443 10.8689C14.5128 10.9455 15.5354 11.6784 16.3947 11.744C17.6784 11.4815 18.9076 10.7267 20.2782 10.8252C21.9208 10.9564 23.161 11.6128 23.9768 12.7941C20.5828 14.8397 21.3878 19.3355 24.499 20.5935C23.8789 22.2343 23.0739 23.8642 21.7359 25.0675L21.7468 25.0565ZM16.286 10.8033C16.1228 8.36393 18.0917 6.3512 20.3544 6.1543C20.6699 8.9765 17.8089 11.0768 16.286 10.8033Z" fill="#28003E"/>
</svg>
