<svg width="33" height="32" viewBox="0 0 33 32" fill="none" xmlns="http://www.w3.org/2000/svg">
<path d="M16.25 6.1543C10.8124 6.1543 6.40381 10.5629 6.40381 16.0005C6.40381 21.438 10.8124 25.8466 16.25 25.8466C21.6875 25.8466 26.0961 21.438 26.0961 16.0005C26.0978 10.5646 21.6916 6.15594 16.2557 6.1543H16.25ZM22.2619 20.9769C22.2619 20.9769 21.7851 18.8214 21.0081 17.5332C20.5864 16.83 19.9349 16.2589 19.0651 16.2761C18.4539 16.2761 17.9172 16.6232 17.26 17.5504C16.8752 18.1822 16.5363 18.8411 16.2467 19.5221C16.2467 19.5221 16.0087 18.9682 15.7298 18.4201C15.5862 18.1212 15.4202 17.8334 15.2333 17.5594C14.5737 16.6322 14.0395 16.2967 13.4282 16.2852C12.5675 16.2679 11.907 16.839 11.4885 17.5389C10.7107 18.8304 10.2348 20.9826 10.2348 20.9826H9.52586L13.3051 8.57645L16.2262 18.2618L16.2459 18.279L16.2656 18.2618L19.1866 8.57645L22.9691 20.9769H22.2619Z" fill="#28003E"/>
</svg>
