<svg width="53" height="52" viewBox="0 0 53 52" fill="none" xmlns="http://www.w3.org/2000/svg">
<path d="M26.25 10C17.414 10 10.25 17.164 10.25 26C10.25 34.836 17.414 42 26.25 42C35.086 42 42.25 34.836 42.25 26C42.2527 17.1667 35.0927 10.0027 26.2593 10H26.25ZM36.0193 34.0867C36.0193 34.0867 35.2447 30.584 33.982 28.4907C33.2967 27.348 32.238 26.42 30.8247 26.448C29.8313 26.448 28.9593 27.012 27.8913 28.5187C27.266 29.5453 26.7153 30.616 26.2447 31.7227C26.2447 31.7227 25.858 30.8227 25.4047 29.932C25.1713 29.4462 24.9017 28.9786 24.598 28.5333C23.526 27.0267 22.658 26.4813 21.6647 26.4627C20.266 26.4347 19.1927 27.3627 18.5127 28.5C17.2487 30.5987 16.4753 34.096 16.4753 34.096H15.3233L21.4647 13.936L26.2113 29.6747L26.2433 29.7027L26.2753 29.6747L31.022 13.936L37.1687 34.0867H36.0193Z" fill="#28003E"/>
</svg>
