<svg width="146" height="52" viewBox="0 0 146 52" fill="none" xmlns="http://www.w3.org/2000/svg">
<path d="M24.2077 34.7707H19V17.2798H27.9868L38.3109 30.3441V17.2798H43.5186V34.7707H34.7074L24.2077 21.4941V34.7707ZM68.3918 29.363C68.3918 31.787 67.9528 32.6299 67.23 33.4357C66.1392 34.6291 64.5384 35 61.4415 35H52.5594C49.4625 35 47.8617 34.6325 46.754 33.4357C46.0312 32.6265 45.5922 31.8039 45.5922 29.363V22.6202C45.5922 20.1961 46.0312 19.3532 46.754 18.5643C47.8617 17.354 49.4625 17 52.5594 17H61.4415C64.5181 17 66.1392 17.3506 67.23 18.5643C67.9528 19.3532 68.3918 20.1961 68.3918 22.637V29.363ZM61.2152 30.5733C62.4107 30.5733 62.816 30.5025 63.1166 30.2396C63.38 29.9934 63.505 29.6968 63.505 28.6584V23.3214C63.505 22.3032 63.3834 21.9863 63.1166 21.7571C62.816 21.4941 62.4141 21.4233 61.2152 21.4233H52.7722C51.5935 21.4233 51.1714 21.4941 50.8911 21.7571C50.6107 21.9863 50.5027 22.2999 50.5027 23.3214V28.6584C50.5027 29.6934 50.6243 29.9934 50.8911 30.2396C51.1714 30.5025 51.5935 30.5733 52.7722 30.5733H61.2152ZM75.9568 17.2832V34.7741H70.5228V17.2832H75.9568ZM85.1394 17.2832H92.2991L82.6234 25.4656L93.5453 34.7707H85.8587L75.9568 25.6578L85.1394 17.3001V17.2832ZM94.5483 17.3001H99.9823V34.7707H94.5483V17.3001ZM120.705 34.7707L119.087 31.7331H108.567L106.983 34.7707H100.985L110.607 17.2798H117.361L127 34.7707H120.705ZM110.469 27.9402H117.223L113.846 21.602L110.469 27.9402Z" fill="#28003E"/>
</svg>
