<svg width="90" height="32" viewBox="0 0 90 32" fill="none" xmlns="http://www.w3.org/2000/svg">
<path d="M15.0508 21.3978H11.8461V10.6341H17.3764L23.7297 18.6736V10.6341H26.9344V21.3978H21.5122L15.0508 13.2275V21.3978ZM42.241 18.0699C42.241 19.5616 41.9708 20.0803 41.5261 20.5762C40.8548 21.3106 39.8697 21.5388 37.9639 21.5388H32.498C30.5922 21.5388 29.6071 21.3127 28.9254 20.5762C28.4807 20.0782 28.2105 19.572 28.2105 18.0699V13.9205C28.2105 12.4287 28.4807 11.9101 28.9254 11.4246C29.6071 10.6798 30.5922 10.4619 32.498 10.4619H37.9639C39.8572 10.4619 40.8548 10.6777 41.5261 11.4246C41.9708 11.9101 42.241 12.4287 42.241 13.9308V18.0699ZM37.8247 18.8147C38.5604 18.8147 38.8098 18.7712 38.9947 18.6093C39.1568 18.4579 39.2337 18.2753 39.2337 17.6363V14.352C39.2337 13.7254 39.1589 13.5304 38.9947 13.3893C38.8098 13.2275 38.5624 13.1839 37.8247 13.1839H32.6289C31.9036 13.1839 31.6438 13.2275 31.4713 13.3893C31.2988 13.5304 31.2323 13.7234 31.2323 14.352V17.6363C31.2323 18.2732 31.3071 18.4579 31.4713 18.6093C31.6438 18.7712 31.9036 18.8147 32.6289 18.8147H37.8247ZM46.8964 10.6362V21.3998H43.5524V10.6362H46.8964ZM52.5472 10.6362H56.9532L50.9989 15.6715L57.7201 21.3978H52.9899L46.8964 15.7898L52.5472 10.6466V10.6362ZM58.3373 10.6466H61.6813V21.3978H58.3373V10.6466ZM74.4337 21.3978L73.4382 19.5284H66.9643L65.9896 21.3978H62.2986L68.2196 10.6341H72.3762L78.3076 21.3978H74.4337ZM68.1344 17.1944H72.291L70.2127 13.2939L68.1344 17.1944Z" fill="#28003E"/>
</svg>
