<svg width="95" height="32" viewBox="0 0 95 32" fill="none" xmlns="http://www.w3.org/2000/svg">
<rect width="95" height="32" fill="#E4E4E4"/>
<g id="Main / Mobile" clip-path="url(#clip0_67_530)">
<rect width="375" height="3172" transform="translate(-63 -388)" fill="#FDFDFD"/>
<g id="Logos">
<g id="Samsung">
<g id="Group">
<path id="XMLID_7_" d="M25.1675 10.2979H20.3907L18.5027 21.4259H21.4292L22.6375 12.7555H22.9207L24.1291 21.4259H27.0555L25.1675 10.2979Z" fill="#28003E"/>
<path id="XMLID_6_" d="M38.988 21.4259L38.8558 13.0504H38.5726L37.2132 21.4259H34.3434L32.9651 13.0504H32.7008L32.5686 21.4259H29.8499L30.2841 10.2979H34.8532L35.6461 16.4517H35.8916L36.7035 10.2979H41.2536L41.7068 21.4259H38.988Z" fill="#28003E"/>
<path id="XMLID_5_" d="M55.7349 18.9683V10.2979H58.7369V18.811V18.87V18.9093V18.9486V19.0076L58.7557 19.0469V19.0862L58.7746 19.1256V19.1649L58.7935 19.2042L58.8124 19.2435L58.8313 19.2829L58.8501 19.3222L58.869 19.3615L58.9068 19.3812L58.9257 19.4205L58.9445 19.4598L58.9823 19.4795L59.0012 19.5188L59.0389 19.5384L59.0767 19.5581L59.1145 19.5974L59.1522 19.6171L59.1711 19.6367L59.2089 19.6564L59.2466 19.6761H59.3033L59.341 19.6957H59.3788L59.4165 19.7154H59.4543H59.511H59.5487H59.5865H59.6431H59.6809L59.7186 19.6957H59.7564L59.7942 19.6761H59.8319L59.8697 19.6564L59.9074 19.6367L59.9452 19.6171L59.983 19.5974L60.0207 19.5581L60.0585 19.5384L60.0774 19.5188L60.1151 19.4795L60.134 19.4598L60.1718 19.4205L60.1906 19.3812L60.2095 19.3615L60.2473 19.3222L60.2662 19.2829L60.285 19.2435L60.3039 19.2042V19.1649L60.3228 19.1256L60.3417 19.0862V19.0469L60.3606 19.0076V18.9486V18.9093V18.87V18.811V10.2979H63.3626V19.0076L63.3437 19.2042L63.3248 19.3812L63.3059 19.5581L63.2682 19.7154L63.2304 19.8923L63.1738 20.0496L63.0982 20.1872L63.0227 20.3445L62.9472 20.4822L62.8528 20.6198L62.7584 20.7378L62.6451 20.8557L62.5507 20.9737L62.4185 21.0916L62.3053 21.1899L62.1731 21.2882L62.022 21.3669L61.8899 21.4652L61.7388 21.5438L61.5878 21.6225L61.4368 21.6815L61.2668 21.7405L61.1158 21.7994L60.9459 21.8584L60.7759 21.8977L60.606 21.9371L60.2662 21.996L59.9074 22.0157L59.5487 22.0354L59.19 22.0157L58.8313 21.9764L58.4914 21.9174L58.3215 21.8781L58.1516 21.8388L57.9816 21.7798L57.8117 21.7405L57.6607 21.6618L57.5096 21.6028L57.3586 21.5242L57.2075 21.4455L57.0565 21.3472L56.9243 21.2686L56.7922 21.1703L56.6789 21.0523L56.5467 20.954L56.4334 20.8361L56.339 20.7181L56.2446 20.5805L56.1502 20.4428L56.0747 20.3052L55.9992 20.1676L55.9237 20.0103L55.867 19.853L55.8293 19.6761L55.7915 19.5188L55.7726 19.3418L55.7537 19.1452L55.7349 18.9683Z" fill="#28003E"/>
<path id="XMLID_4_" d="M76.088 10.2979H73.4825V17.2578H73.4259L70.405 10.2979H67.1953V21.4259H69.8008V14.9181H69.8575L72.6895 21.4259H76.088V10.2979Z" fill="#28003E"/>
<path id="XMLID_3_" d="M44.8787 19.2239V17.769H47.8618L47.8429 18.4178V18.5751L47.8618 18.7324V18.7914L47.8807 18.87V18.929L47.8995 18.988L47.9184 19.047L47.9373 19.0863V19.1059L47.9562 19.1453L47.9751 19.1649V19.1846L47.9939 19.2239L48.0128 19.2436L48.0317 19.2632L48.0506 19.2829L48.0695 19.3222L48.0883 19.3419L48.1072 19.3615L48.145 19.3812L48.1639 19.4009L48.1827 19.4205L48.2205 19.4402H48.2394L48.2771 19.4598L48.296 19.4795L48.3338 19.4992H48.3715L48.4093 19.5188L48.4848 19.5385L48.5603 19.5582H48.6548L48.7492 19.5778H48.768H48.7869H48.8058H48.8436L48.8624 19.5582H48.8813H48.9002H48.9191L48.9757 19.5385L49.0135 19.5188L49.0512 19.4992L49.1079 19.4795L49.1456 19.4402L49.1834 19.4205L49.2212 19.3812L49.2589 19.3419L49.2967 19.3026L49.3344 19.2632L49.3722 19.2043L49.3911 19.1649L49.4288 19.1059L49.4477 19.047L49.4666 19.0076L49.4855 18.929L49.5044 18.87L49.5232 18.811V18.7324V18.6734V18.5948V18.5161L49.5044 18.4375L49.4855 18.3588L49.4666 18.2802L49.4477 18.2016L49.41 18.1229L49.3722 18.0246L49.3533 17.9853L49.3156 17.946L49.2967 17.9066L49.2778 17.8673L49.24 17.828L49.2212 17.7887L49.1645 17.7297L49.089 17.6707L49.0135 17.5921L48.938 17.5331L48.8624 17.4741L48.6925 17.3758L48.5037 17.2578L48.0695 17.0612L47.5974 16.8253L47.0688 16.5304L46.8045 16.3731L46.5213 16.1765L46.2381 15.9602L45.9548 15.7243L45.9171 15.685L45.8793 15.6653L45.8416 15.626L45.8038 15.5867L45.766 15.5473L45.7283 15.508L45.6528 15.4294L45.5961 15.3311L45.5395 15.2328L45.4828 15.1345L45.4262 15.0362L45.3696 14.9182L45.3318 14.8002L45.294 14.6823L45.2563 14.5643L45.1996 14.3087L45.143 14.0531L45.1052 13.7779L45.0863 13.5223L45.0675 13.247V12.9914V12.7358L45.0863 12.4999L45.1052 12.2836L45.143 12.0674L45.1619 11.9298L45.1996 11.7725L45.2563 11.6348L45.3129 11.4972L45.3696 11.3792L45.4451 11.2416L45.5206 11.1237L45.5961 11.0254L45.6905 10.9074L45.7849 10.8091L45.8793 10.7108L45.9926 10.6321L46.1059 10.5338L46.2381 10.4552L46.3513 10.3765L46.4835 10.3176L46.6157 10.2586L46.7478 10.1996L46.88 10.1406L47.031 10.0816L47.3331 10.003L47.6352 9.94401L47.9562 9.88502L48.2583 9.86537L48.5792 9.8457L48.9002 9.86537L49.2212 9.88502L49.5421 9.92435L49.8631 9.98333L50.1652 10.062L50.4484 10.1603L50.7316 10.2586L50.9959 10.3765L51.1092 10.4552L51.2414 10.5142L51.3547 10.5928L51.4679 10.6715L51.5623 10.7501L51.6567 10.8287L51.7511 10.927L51.8455 11.0057L51.9211 11.104L51.9966 11.2023L52.0532 11.3006L52.091 11.3596L52.1099 11.3989L52.1476 11.4579L52.1665 11.5169L52.1854 11.5759L52.2043 11.6152L52.2232 11.6742L52.242 11.7331V11.7921L52.2609 11.8511V11.9101L52.2798 11.9691V12.0281V12.087V13.6206H49.561L49.5799 12.9718V12.8341V12.6965L49.561 12.6375V12.5786L49.5421 12.5196L49.5232 12.4606V12.4409L49.5044 12.4016V12.382L49.4855 12.3623L49.4666 12.323V12.3033L49.4477 12.2836L49.4288 12.264L49.41 12.2443L49.3911 12.2247L49.3722 12.205L49.3533 12.1853L49.3344 12.1657L49.3156 12.146L49.2967 12.1264L49.2589 12.1067H49.24L49.2023 12.087L49.1834 12.0674H49.1456L49.1079 12.0477L49.089 12.0281L49.0135 12.0084H48.938L48.8436 11.9887H48.7492H48.6548H48.617H48.5792H48.5415L48.5037 12.0084L48.4659 12.0281H48.4282L48.3904 12.0477L48.3338 12.0674L48.296 12.1067L48.2583 12.1264L48.2205 12.146L48.1827 12.1853L48.145 12.205L48.1072 12.2443L48.0695 12.2836L48.0506 12.323L48.0317 12.3426L48.0128 12.3623V12.4016L47.9939 12.4213L47.9751 12.4409V12.4606L47.9562 12.4999V12.5196L47.9373 12.5392V12.5786L47.9184 12.5982V12.6375V12.6572V12.6965V12.7162L47.8995 12.7555V12.7752V12.8145L47.9184 12.8538V12.8931V12.9521L47.9373 13.0308L47.9562 13.1094L47.9939 13.188L48.0128 13.2667L48.0506 13.3453L48.1261 13.4633L48.2205 13.5419L48.296 13.6402L48.3715 13.7189L48.5603 13.8958L48.7303 14.0335L48.9191 14.1711L49.1079 14.2891L49.2967 14.407L49.5044 14.5053L50.2973 14.8789L50.675 15.0558L50.8638 15.1541L51.0526 15.2721L51.2225 15.3704L51.3924 15.4884L51.4679 15.567L51.5623 15.626L51.6379 15.7046L51.7134 15.7636L51.77 15.8423L51.8455 15.9209L51.9211 16.0192L51.9777 16.0978L52.0344 16.1961L52.091 16.2945L52.1476 16.3928L52.2043 16.5107L52.242 16.6287L52.2987 16.7467L52.3364 16.8646L52.3742 17.0022L52.412 17.1399L52.4308 17.2775L52.4497 17.4348L52.4686 17.5921L52.5064 17.9263V18.2999L52.4875 18.6931L52.4686 19.1256L52.4497 19.3026L52.412 19.4598L52.3742 19.5975L52.3176 19.7548L52.2609 19.8924L52.2043 20.03L52.1288 20.1676L52.0344 20.2856L51.9588 20.4232L51.8455 20.5215L51.7511 20.6395L51.6379 20.7378L51.5246 20.8361L51.4113 20.9344L51.2791 21.0327L51.147 21.1114L50.9959 21.19L50.8638 21.2686L50.7127 21.3276L50.5617 21.3866L50.4106 21.4456L50.2596 21.5046L49.9386 21.5832L49.5988 21.6619L49.2589 21.7012L48.9191 21.7405H48.5603L48.2205 21.7208L47.8807 21.7012L47.5408 21.6422L47.2198 21.5636L46.8989 21.4849L46.5968 21.3669L46.4457 21.308L46.3136 21.2293L46.1814 21.1703L46.0492 21.0917L45.9171 21.0131L45.8038 20.9147L45.6905 20.8361L45.5772 20.7378L45.464 20.6395L45.3696 20.5215L45.294 20.4232L45.1996 20.3053L45.143 20.1873L45.1052 20.1283L45.0675 20.0693L45.0486 19.9907L45.0108 19.9317L44.9919 19.8727L44.9731 19.7941L44.9542 19.7351L44.9353 19.6565L44.9164 19.5975L44.8975 19.5188V19.4598L44.8787 19.3812V19.3026V19.2239Z" fill="#28003E"/>
<path id="XMLID_2_" d="M11.97 9.8457L11.498 9.86537L11.0826 9.92435L10.8749 9.96367L10.6861 10.0227L10.5162 10.062L10.3463 10.121L10.1764 10.1799L10.0253 10.2586L9.87429 10.3176L9.74212 10.3962L9.60996 10.4748L9.4778 10.5732L9.36451 10.6518L9.25123 10.7501L9.15683 10.8484L9.06243 10.9467L8.96803 11.045L8.8925 11.163L8.81698 11.2613L8.76034 11.3792L8.68482 11.4972L8.64706 11.6152L8.59042 11.7331L8.55266 11.8511L8.51489 11.9691L8.47713 12.1067L8.43937 12.2247L8.42049 12.3623L8.40161 12.4803V12.6179L8.38273 12.8735V13.1291L8.40161 13.3847L8.43937 13.6206L8.47713 13.8762L8.53378 14.1121L8.59042 14.348L8.66594 14.5643L8.74146 14.7609L8.83586 14.9575L8.91138 15.1345L9.00579 15.2918L9.10019 15.4294L9.15683 15.4884L9.19459 15.5473L9.23235 15.6063L9.28899 15.6456L9.32675 15.685L9.34563 15.7046L9.36451 15.7243L9.6666 15.9602L9.93093 16.1765L10.2141 16.3731L10.4785 16.5304L11.0071 16.8253L11.4791 17.0612L11.9134 17.2578L12.1022 17.3758L12.2721 17.4741L12.3476 17.5331L12.4231 17.5921L12.4987 17.6707L12.5742 17.7297L12.6308 17.7887L12.6497 17.828L12.6875 17.8673L12.7064 17.9066L12.7252 17.946L12.763 17.9853L12.7819 18.0246L12.8196 18.1229L12.8574 18.2016L12.8763 18.2802L12.8952 18.3588L12.914 18.4375L12.9329 18.5161V18.5948V18.6734V18.7324V18.811L12.914 18.87L12.8952 18.929L12.8763 19.0076L12.8574 19.047L12.8385 19.1059L12.8008 19.1649L12.7819 19.2043L12.7441 19.2632L12.7064 19.3026L12.6686 19.3419L12.6308 19.3812L12.5931 19.4205L12.5553 19.4402L12.5175 19.4795L12.4609 19.4992L12.4231 19.5188L12.3854 19.5385L12.3287 19.5582H12.3099H12.291H12.2721L12.2532 19.5778H12.2155H12.1966H12.1777H12.1588L12.0644 19.5582H11.97L11.8945 19.5385L11.819 19.5188L11.7812 19.4992H11.7435L11.7057 19.4795L11.6868 19.4598L11.649 19.4402H11.6302L11.5924 19.4205L11.5735 19.4009L11.5546 19.3812L11.5169 19.3615L11.498 19.3419L11.4791 19.3222L11.4602 19.2829L11.4414 19.2632L11.4225 19.2436L11.4036 19.2239L11.3847 19.1846V19.1649L11.3658 19.1453L11.347 19.1059V19.0863L11.3281 19.047L11.3092 18.988L11.2903 18.929V18.87L11.2714 18.7914V18.7324L11.2526 18.5751V18.4178L11.2714 17.769H8.28833V19.2239V19.3026V19.3812L8.30721 19.4598V19.5188L8.32609 19.5975L8.34497 19.6565L8.36385 19.7351L8.38273 19.7941L8.40161 19.8727L8.42049 19.9317L8.45825 19.9907L8.47713 20.0693L8.51489 20.1283L8.55266 20.1873L8.62818 20.3053L8.7037 20.4232L8.77922 20.5215L8.87362 20.6395L8.98691 20.7378L9.10019 20.8361L9.21347 20.9147L9.32675 21.0131L9.45892 21.0917L9.59108 21.1703L9.72324 21.2293L9.85541 21.308L10.0064 21.3669L10.3085 21.4849L10.6295 21.5636L10.9505 21.6422L11.2903 21.7012L11.6302 21.7208L11.97 21.7405H12.3287L12.6686 21.7012L13.0084 21.6619L13.3483 21.5832L13.6693 21.5046L13.8203 21.4456L13.9713 21.3866L14.1224 21.3276L14.2734 21.2686L14.4056 21.19L14.5566 21.1114L14.6888 21.0327L14.821 20.9344L14.9342 20.8361L15.0475 20.7378L15.1608 20.6395L15.2741 20.5215L15.3685 20.4232L15.444 20.2856L15.5384 20.1676L15.6139 20.03L15.6706 19.8924L15.7272 19.7548L15.7839 19.5975L15.8216 19.4598L15.8594 19.3026L15.8783 19.1256L15.8971 18.6931L15.916 18.2999V17.9263L15.8783 17.5921L15.8594 17.4348L15.8405 17.2775L15.8216 17.1399L15.7839 17.0022L15.7461 16.8646L15.7083 16.7467L15.6517 16.6287L15.6139 16.5107L15.5573 16.3928L15.5007 16.2945L15.444 16.1961L15.3874 16.0978L15.3307 16.0192L15.2552 15.9209L15.1797 15.8423L15.123 15.7636L15.0475 15.7046L14.972 15.626L14.8776 15.567L14.8021 15.4884L14.6322 15.3704L14.4622 15.2721L14.2734 15.1541L14.0846 15.0558L13.707 14.8789L12.914 14.5053L12.7064 14.407L12.5175 14.2891L12.3287 14.1711L12.1399 14.0335L11.97 13.8958L11.7812 13.7189L11.7057 13.6402L11.6302 13.5419L11.5358 13.4633L11.4602 13.3453L11.4225 13.2667L11.4036 13.188L11.3658 13.1094L11.347 13.0308L11.3281 12.9521V12.8931V12.8538V12.8145L11.3092 12.7752L11.3281 12.7555V12.7162V12.6965V12.6572V12.6375L11.347 12.5982V12.5786V12.5392L11.3658 12.5196V12.4999L11.3847 12.4606V12.4409L11.4036 12.4213L11.4225 12.4016V12.3623L11.4414 12.3426L11.4602 12.323L11.498 12.2836L11.5169 12.2443L11.5546 12.205L11.5924 12.1853L11.6302 12.146L11.6679 12.1264L11.7057 12.1067L11.7435 12.0674L11.8001 12.0477L11.8379 12.0281H11.8756L11.9134 12.0084L11.9511 11.9887H11.9889H12.0267H12.0644H12.1588H12.2532L12.3476 12.0084H12.4231L12.4987 12.0281L12.5175 12.0477L12.5553 12.0674H12.5931L12.612 12.087L12.6497 12.1067H12.6686L12.7064 12.1264L12.7252 12.146L12.7441 12.1657L12.763 12.1853L12.7819 12.205L12.8008 12.2247L12.8196 12.2443L12.8385 12.264L12.8574 12.2836L12.8763 12.3033V12.323L12.8952 12.3623L12.914 12.382V12.4016L12.9329 12.4409V12.4606L12.9518 12.5196L12.9707 12.5786V12.6375L12.9896 12.6965V12.8341V12.9718L12.9707 13.6206H15.6895V12.087V12.0084V11.9298L15.6706 11.8511V11.7725L15.6517 11.6938L15.6328 11.6152L15.6139 11.5562L15.5951 11.4776L15.5573 11.4186L15.5384 11.3399L15.5007 11.2809L15.4818 11.222L15.444 11.163L15.4063 11.104L15.3685 11.045L15.3307 10.986L15.2741 10.927L15.2363 10.8877L15.1797 10.8287L15.1419 10.7698L15.0286 10.6911L14.9154 10.5928L14.8021 10.5142L14.6699 10.4355L14.5378 10.3765L14.4056 10.2979L14.2734 10.2389L14.1224 10.1799L13.8203 10.1013L13.5182 10.0227L13.1972 9.94401L12.8952 9.90469L12.5742 9.86537L11.97 9.8457Z" fill="#28003E"/>
<path id="XMLID_1_" d="M83.6591 22.1529H83.9989H84.3199L84.622 22.1333L84.8863 22.0939L85.1506 22.0546L85.3772 21.9956L85.4905 21.9563L85.5849 21.917L85.6793 21.8777L85.7926 21.8384L85.8681 21.799L85.9625 21.7401L86.038 21.7007L86.1135 21.6418L86.189 21.5828L86.2646 21.5434L86.3212 21.4845L86.3967 21.4255L86.4534 21.3665L86.51 21.2879L86.5478 21.2289L86.6044 21.1699L86.6422 21.0912L86.6988 21.0323L86.7366 20.9536L86.7743 20.8946L86.7932 20.816L86.831 20.757L86.8876 20.5997L86.9254 20.4621L86.9631 20.3048L87.0009 20.1475L87.0198 19.9902L87.0387 19.8526V19.6953L87.0575 19.4004V19.1252V18.6336V15.6059H83.5269V17.2181H84.2444V19.1252V19.1645V19.2038V19.2431L84.2255 19.2825V19.3218L84.2066 19.3611V19.4004L84.1877 19.4201L84.1688 19.4594L84.15 19.4987L84.1311 19.538L84.1122 19.5577L84.0933 19.597L84.0744 19.6363L84.0556 19.656L84.0178 19.6757L83.9989 19.715L83.9612 19.7346L83.9423 19.7543L83.9045 19.774L83.8856 19.7936L83.8479 19.8133L83.8101 19.833L83.7724 19.8526L83.7346 19.8723L83.7157 19.8919H83.6779L83.6402 19.9116H83.6024H83.5647H83.5269H83.4703H83.4325H83.3947H83.357H83.3192L83.2815 19.8919H83.2437L83.2059 19.8723L83.1871 19.8526L83.1493 19.833L83.1115 19.8133L83.0738 19.7936L83.0549 19.774L83.0171 19.7543L82.9983 19.7346L82.9605 19.715L82.9416 19.6757L82.9038 19.656L82.885 19.6363L82.8661 19.597L82.8472 19.5577L82.8283 19.538L82.8094 19.4987L82.7906 19.4594L82.7717 19.4201L82.7528 19.4004V19.3611L82.7339 19.3218V19.2825L82.715 19.2431V19.2038V19.1645V19.1252V12.9123V12.873V12.8337V12.7944L82.7339 12.7551V12.7157L82.7528 12.6764V12.6371L82.7717 12.5978L82.7906 12.5584L82.8094 12.5388L82.8283 12.4995L82.8472 12.4601L82.8661 12.4405L82.885 12.4012L82.9038 12.3815L82.9416 12.3422L82.9605 12.3225L82.9983 12.3029L83.0171 12.2635L83.0549 12.2439L83.0738 12.2242L83.1115 12.2046L83.1493 12.1849H83.1871L83.2059 12.1652L83.2437 12.1456H83.2815L83.3192 12.1259H83.357H83.3947L83.4325 12.1062H83.4703H83.5269L83.5647 12.1259H83.6024H83.6402L83.6779 12.1456H83.7157L83.7346 12.1652L83.7724 12.1849H83.8101L83.8479 12.2046L83.8856 12.2242L83.9045 12.2439L83.9423 12.2635L83.9612 12.3029L83.9989 12.3225L84.0178 12.3422L84.0556 12.3815L84.0744 12.4012L84.0933 12.4405L84.1122 12.4601L84.1311 12.4995L84.15 12.5388L84.1688 12.5584L84.1877 12.5978L84.2066 12.6371V12.6764L84.2255 12.7157V12.7551L84.2444 12.7944V12.8337V12.873V12.9123V13.9347H87.0575V12.6764L87.0387 12.4995V12.4405L87.0198 12.3618V12.2832L87.0009 12.2046L86.982 12.1259L86.9631 12.0669L86.9443 11.9883L86.9254 11.9293L86.9065 11.8507L86.8687 11.7917L86.831 11.713L86.8121 11.654L86.7366 11.5361L86.6611 11.4181L86.5667 11.3002L86.4911 11.1822L86.3778 11.0839L86.2834 10.9856L86.1702 10.8873L86.038 10.8086L85.9247 10.7103L85.7926 10.6317L85.6604 10.5727L85.5282 10.4941L85.3772 10.4351L85.2261 10.3761L85.0751 10.3171L84.773 10.2188L84.452 10.1598L84.1122 10.1008L83.7724 10.0812L83.4514 10.0615H83.1115L82.7717 10.1008L82.4507 10.1402L82.1297 10.2188L81.8088 10.3171L81.6577 10.3564L81.5067 10.4154L81.3745 10.4744L81.2235 10.553L81.0913 10.612L80.9592 10.6907L80.8459 10.789L80.7326 10.8676L80.6193 10.9659L80.506 11.0642L80.4116 11.1625L80.3172 11.2608L80.2228 11.3788L80.1473 11.4968L80.0718 11.6147L80.0529 11.6934L80.0151 11.7524L79.9963 11.8113L79.9585 11.89L79.9396 11.949L79.9207 12.0276L79.9019 12.0866L79.883 12.1652L79.8641 12.2439V12.3029L79.8452 12.3815V12.4601V12.6174V19.597V19.715V19.8133V19.9116L79.8641 20.0099L79.883 20.1082L79.9019 20.1868L79.9207 20.2851L79.9396 20.3638L79.9585 20.4621L79.9963 20.5407L80.034 20.6194L80.0529 20.698L80.0907 20.757L80.1473 20.8357L80.1851 20.9143L80.2228 20.9733L80.2795 21.0323L80.3172 21.0912L80.3739 21.1502L80.4305 21.2092L80.4871 21.2682L80.5438 21.3272L80.6571 21.4255L80.7892 21.5238L80.9214 21.6024L81.0536 21.6811L81.2046 21.7597L81.3557 21.8187L81.5067 21.8777L81.6577 21.917L81.8088 21.976L82.1297 22.035L82.4507 22.0939L82.7717 22.1333L83.0927 22.1529H83.3759H83.6591Z" fill="#28003E"/>
</g>
</g>
</g>
</g>
<defs>
<clipPath id="clip0_67_530">
<rect width="375" height="3172" fill="white" transform="translate(-63 -388)"/>
</clipPath>
</defs>
</svg>
