<svg width="153" height="52" viewBox="0 0 153 52" fill="none" xmlns="http://www.w3.org/2000/svg">
<path d="M40.1786 16.7349H32.4163L29.3483 34.8179H34.1038L36.0673 20.7285H36.5276L38.4911 34.8179H43.2466L40.1786 16.7349Z" fill="#28003E"/>
<path d="M62.6368 34.8179L62.4221 21.2077H61.9618L59.7528 34.8179H55.0894L52.8497 21.2077H52.4201L52.2054 34.8179H47.7874L48.493 16.7349H55.9177L57.2063 26.7349H57.6052L58.9244 16.7349H66.3185L67.0548 34.8179H62.6368Z" fill="#28003E"/>
<path d="M89.8506 30.8243V16.7349H94.7288V30.5687V30.6646V30.7284V30.7924V30.8882L94.7595 30.9521V31.016L94.7902 31.0799V31.1438L94.8209 31.2077L94.8515 31.2716L94.8822 31.3355L94.9129 31.3994L94.9436 31.4633L95.0049 31.4952L95.0356 31.5591L95.0663 31.623L95.1277 31.655L95.1583 31.7189L95.2197 31.7508L95.2811 31.7828L95.3424 31.8467L95.4038 31.8786L95.4345 31.9106L95.4958 31.9425L95.5572 31.9745H95.6492L95.7106 32.0064H95.772L95.8333 32.0384H95.8947H95.9867H96.0481H96.1094H96.2015H96.2629L96.3242 32.0064H96.3856L96.4469 31.9745H96.5083L96.5697 31.9425L96.631 31.9106L96.6924 31.8786L96.7537 31.8467L96.8151 31.7828L96.8765 31.7508L96.9071 31.7189L96.9685 31.655L96.9992 31.623L97.0606 31.5591L97.0912 31.4952L97.1219 31.4633L97.1833 31.3994L97.214 31.3355L97.2446 31.2716L97.2753 31.2077V31.1438L97.306 31.0799L97.3367 31.016V30.9521L97.3674 30.8882V30.7924V30.7284V30.6646V30.5687V16.7349H102.246V30.8882L102.215 31.2077L102.184 31.4952L102.154 31.7828L102.092 32.0384L102.031 32.3259L101.939 32.5815L101.816 32.8051L101.693 33.0607L101.571 33.2844L101.417 33.508L101.264 33.6997L101.08 33.8914L100.926 34.0831L100.712 34.2748L100.527 34.4345L100.313 34.5943L100.067 34.7221L99.8525 34.8818L99.607 35.0096L99.3616 35.1374L99.1162 35.2332L98.84 35.3291L98.5946 35.4249L98.3185 35.5208L98.0423 35.5847L97.7662 35.6486L97.214 35.7444L96.631 35.7764L96.0481 35.8083L95.4652 35.7764L94.8822 35.7125L94.33 35.6166L94.0538 35.5527L93.7777 35.4888L93.5016 35.393L93.2255 35.3291L92.98 35.2013L92.7346 35.1054L92.4891 34.9777L92.2437 34.8499L91.9982 34.6901L91.7835 34.5623L91.5687 34.4026L91.3846 34.2109L91.1699 34.0511L90.9858 33.8594L90.8324 33.6677L90.679 33.4441L90.5256 33.2205L90.4028 32.9968L90.2801 32.7732L90.1574 32.5176L90.0653 32.262L90.004 31.9745L89.9426 31.7189L89.9119 31.4313L89.8813 31.1118L89.8506 30.8243Z" fill="#28003E"/>
<path d="M122.924 16.7349H118.691V28.0448H118.599L113.69 16.7349H108.474V34.8179H112.708V24.2428H112.8L117.402 34.8179H122.924V16.7349Z" fill="#28003E"/>
<path d="M72.2092 31.2396V28.8754H77.0568L77.0261 29.9297V30.1853L77.0568 30.4409V30.5367L77.0875 30.6645V30.7604L77.1181 30.8562L77.1488 30.9521L77.1795 31.016V31.0479L77.2102 31.1118L77.2409 31.1438V31.1757L77.2715 31.2396L77.3022 31.2715L77.3329 31.3035L77.3636 31.3354L77.3943 31.3993L77.4249 31.4313L77.4556 31.4632L77.517 31.4952L77.5477 31.5271L77.5784 31.5591L77.6397 31.591H77.6704L77.7318 31.623L77.7624 31.6549L77.8238 31.6869H77.8852L77.9465 31.7188L78.0692 31.7508L78.192 31.7827H78.3454L78.4988 31.8147H78.5295H78.5601H78.5908H78.6522L78.6829 31.7827H78.7135H78.7442H78.7749L78.8669 31.7508L78.9283 31.7188L78.9897 31.6869L79.0817 31.6549L79.1431 31.591L79.2044 31.5591L79.2658 31.4952L79.3272 31.4313L79.3885 31.3674L79.4499 31.3035L79.5112 31.2076L79.5419 31.1438L79.6033 31.0479L79.634 30.9521L79.6646 30.8882L79.6953 30.7604L79.726 30.6645L79.7567 30.5687V30.4409V30.345V30.2172V30.0894L79.726 29.9616L79.6953 29.8338L79.6646 29.7061L79.634 29.5783L79.5726 29.4505L79.5112 29.2907L79.4806 29.2268L79.4192 29.1629L79.3885 29.099L79.3578 29.0351L79.2965 28.9712L79.2658 28.9073L79.1737 28.8115L79.051 28.7156L78.9283 28.5878L78.8056 28.492L78.6829 28.3961L78.4067 28.2364L78.0999 28.0447L77.3943 27.7252L76.6273 27.3418L75.7682 26.8626L75.3387 26.607L74.8784 26.2875L74.4182 25.9361L73.958 25.5527L73.8967 25.4888L73.8353 25.4569L73.7739 25.393L73.7126 25.3291L73.6512 25.2652L73.5899 25.2013L73.4671 25.0735L73.3751 24.9137L73.2831 24.754L73.191 24.5942L73.099 24.4345L73.0069 24.2428L72.9456 24.0511L72.8842 23.8594L72.8228 23.6677L72.7308 23.2524L72.6388 22.8371L72.5774 22.3898L72.5467 21.9744L72.516 21.5271V21.1118V20.6965L72.5467 20.3131L72.5774 19.9617L72.6388 19.6102L72.6694 19.3866L72.7308 19.131L72.8228 18.9073L72.9149 18.6837L73.0069 18.492L73.1296 18.2684L73.2524 18.0767L73.3751 17.9169L73.5285 17.7252L73.6819 17.5655L73.8353 17.4058L74.0194 17.278L74.2035 17.1182L74.4182 16.9904L74.6023 16.8626L74.8171 16.7668L75.0319 16.6709L75.2466 16.5751L75.4614 16.4792L75.7068 16.3834L76.1977 16.2556L76.6886 16.1597L77.2102 16.0639L77.7011 16.032L78.2227 16L78.7442 16.032L79.2658 16.0639L79.7874 16.1278L80.3089 16.2236L80.7998 16.3514L81.26 16.5112L81.7203 16.6709L82.1498 16.8626L82.3339 16.9904L82.5486 17.0863L82.7327 17.2141L82.9168 17.3419L83.0702 17.4696L83.2236 17.5974L83.377 17.7572L83.5304 17.885L83.6531 18.0447L83.7759 18.2045L83.8679 18.3642L83.9293 18.4601L83.9599 18.524L84.0213 18.6198L84.052 18.7157L84.0827 18.8115L84.1133 18.8754L84.144 18.9712L84.1747 19.0671V19.1629L84.2054 19.2588V19.3546L84.2361 19.4505V19.5463V19.6422V22.1342H79.818L79.8487 21.0799V20.8562V20.6326L79.818 20.5367V20.4409L79.7874 20.345L79.7567 20.2492V20.2172L79.726 20.1533V20.1214L79.6953 20.0895L79.6646 20.0256V19.9936L79.634 19.9617L79.6033 19.9297L79.5726 19.8978L79.5419 19.8658L79.5112 19.8339L79.4806 19.8019L79.4499 19.77L79.4192 19.738L79.3885 19.7061L79.3272 19.6741H79.2965L79.2351 19.6422L79.2044 19.6102H79.1431L79.0817 19.5783L79.051 19.5463L78.9283 19.5144H78.8056L78.6522 19.4824H78.4988H78.3454H78.284H78.2227H78.1613L78.0999 19.5144L78.0386 19.5463H77.9772L77.9158 19.5783L77.8238 19.6102L77.7624 19.6741L77.7011 19.7061L77.6397 19.738L77.5784 19.8019L77.517 19.8339L77.4556 19.8978L77.3943 19.9617L77.3636 20.0256L77.3329 20.0575L77.3022 20.0895V20.1533L77.2715 20.1853L77.2409 20.2172V20.2492L77.2102 20.3131V20.345L77.1795 20.377V20.4409L77.1488 20.4728V20.5367V20.5687V20.6326V20.6645L77.1181 20.7284V20.7604V20.8243L77.1488 20.8882V20.9521V21.0479L77.1795 21.1757L77.2102 21.3035L77.2715 21.4313L77.3022 21.5591L77.3636 21.6869L77.4863 21.8786L77.6397 22.0064L77.7624 22.1661L77.8852 22.2939L78.192 22.5815L78.4681 22.8051L78.7749 23.0287L79.0817 23.2204L79.3885 23.4121L79.726 23.5719L81.0146 24.1789L81.6282 24.4664L81.935 24.6262L82.2418 24.8179L82.5179 24.9776L82.7941 25.1693L82.9168 25.2971L83.0702 25.393L83.1929 25.5208L83.3156 25.6166L83.4077 25.7444L83.5304 25.8722L83.6531 26.0319L83.7452 26.1597L83.8372 26.3195L83.9293 26.4792L84.0213 26.639L84.1133 26.8307L84.1747 27.0223L84.2667 27.214L84.3281 27.4057L84.3895 27.6294L84.4508 27.853L84.4815 28.0767L84.5122 28.3322L84.5429 28.5878L84.6042 29.131V29.738L84.5736 30.377L84.5429 31.0799L84.5122 31.3674L84.4508 31.623L84.3895 31.8466L84.2974 32.1022L84.2054 32.3259L84.1133 32.5495L83.9906 32.7731L83.8372 32.9648L83.7145 33.1885L83.5304 33.3482L83.377 33.5399L83.1929 33.6997L83.0088 33.8594L82.8248 34.0191L82.61 34.1789L82.3952 34.3067L82.1498 34.4345L81.935 34.5623L81.6896 34.6581L81.4441 34.754L81.1987 34.8498L80.9532 34.9457L80.4317 35.0735L79.8794 35.2012L79.3272 35.2652L78.7749 35.3291H78.192L77.6397 35.2971L77.0875 35.2652L76.5352 35.1693L76.0136 35.0415L75.4921 34.9137L75.0012 34.722L74.7557 34.6262L74.541 34.4984L74.3262 34.4025L74.1114 34.2747L73.8967 34.1469L73.7126 33.9872L73.5285 33.8594L73.3444 33.6997L73.1603 33.5399L73.0069 33.3482L72.8842 33.1885L72.7308 32.9968L72.6388 32.8051L72.5774 32.7092L72.516 32.6134L72.4854 32.4856L72.424 32.3898L72.3933 32.2939L72.3626 32.1661L72.332 32.0703L72.3013 31.9425L72.2706 31.8466L72.2399 31.7188V31.623L72.2092 31.4952V31.3674V31.2396Z" fill="#28003E"/>
<path d="M18.7327 16L17.9657 16.032L17.2907 16.1278L16.9533 16.1917L16.6464 16.2875L16.3703 16.3514L16.0942 16.4473L15.8181 16.5431L15.5726 16.6709L15.3272 16.7668L15.1124 16.8946L14.8977 17.0224L14.6829 17.1821L14.4988 17.3099L14.3147 17.4696L14.1613 17.6294L14.0079 17.7891L13.8545 17.9489L13.7318 18.1406L13.6091 18.3003L13.517 18.492L13.3943 18.6837L13.3329 18.8754L13.2409 19.0671L13.1795 19.2588L13.1182 19.4505L13.0568 19.6741L12.9954 19.8658L12.9648 20.0895L12.9341 20.2811V20.5048L12.9034 20.9201V21.3355L12.9341 21.7508L12.9954 22.1342L13.0568 22.5495L13.1488 22.9329L13.2409 23.3163L13.3636 23.6677L13.4863 23.9872L13.6397 24.3067L13.7625 24.5942L13.9159 24.8498L14.0693 25.0735L14.1613 25.1693L14.2227 25.2652L14.284 25.361L14.3761 25.4249L14.4374 25.4888L14.4681 25.5208L14.4988 25.5527L14.9897 25.9361L15.4192 26.2875L15.8794 26.607L16.309 26.8626L17.168 27.3418L17.935 27.7252L18.6407 28.0447L18.9475 28.2364L19.2236 28.3961L19.3464 28.492L19.4691 28.5878L19.5918 28.7156L19.7145 28.8115L19.8066 28.9073L19.8372 28.9712L19.8986 29.0351L19.9293 29.099L19.96 29.1629L20.0213 29.2268L20.052 29.2907L20.1134 29.4505L20.1747 29.5783L20.2054 29.7061L20.2361 29.8338L20.2668 29.9616L20.2975 30.0894V30.2172V30.345V30.4409V30.5687L20.2668 30.6645L20.2361 30.7604L20.2054 30.8882L20.1747 30.9521L20.1441 31.0479L20.0827 31.1438L20.052 31.2076L19.9906 31.3035L19.9293 31.3674L19.8679 31.4313L19.8066 31.4952L19.7452 31.5591L19.6838 31.591L19.6225 31.6549L19.5304 31.6869L19.4691 31.7188L19.4077 31.7508L19.3157 31.7827H19.285H19.2543H19.2236L19.1929 31.8147H19.1316H19.1009H19.0702H19.0395L18.8861 31.7827H18.7327L18.61 31.7508L18.4873 31.7188L18.4259 31.6869H18.3646L18.3032 31.6549L18.2725 31.623L18.2112 31.591H18.1805L18.1191 31.5591L18.0884 31.5271L18.0578 31.4952L17.9964 31.4632L17.9657 31.4313L17.935 31.3993L17.9044 31.3354L17.8737 31.3035L17.843 31.2715L17.8123 31.2396L17.7816 31.1757V31.1438L17.751 31.1118L17.7203 31.0479V31.016L17.6896 30.9521L17.6589 30.8562L17.6282 30.7604V30.6645L17.5976 30.5367V30.4409L17.5669 30.1853V29.9297L17.5976 28.8754H12.75V31.2396V31.3674V31.4952L12.7807 31.623V31.7188L12.8114 31.8466L12.842 31.9425L12.8727 32.0703L12.9034 32.1661L12.9341 32.2939L12.9648 32.3898L13.0261 32.4856L13.0568 32.6134L13.1182 32.7092L13.1795 32.8051L13.3023 32.9968L13.425 33.1885L13.5477 33.3482L13.7011 33.5399L13.8852 33.6997L14.0693 33.8594L14.2534 33.9872L14.4374 34.1469L14.6522 34.2747L14.867 34.4025L15.0817 34.4984L15.2965 34.6262L15.5419 34.722L16.0328 34.9137L16.5544 35.0415L17.076 35.1693L17.6282 35.2652L18.1805 35.2971L18.7327 35.3291H19.3157L19.8679 35.2652L20.4202 35.2012L20.9724 35.0735L21.494 34.9457L21.7394 34.8498L21.9849 34.754L22.2303 34.6581L22.4758 34.5623L22.6906 34.4345L22.936 34.3067L23.1508 34.1789L23.3655 34.0191L23.5496 33.8594L23.7337 33.6997L23.9178 33.5399L24.1019 33.3482L24.2553 33.1885L24.378 32.9648L24.5314 32.7731L24.6541 32.5495L24.7462 32.3259L24.8382 32.1022L24.9302 31.8466L24.9916 31.623L25.053 31.3674L25.0836 31.0799L25.1143 30.377L25.145 29.738V29.131L25.0836 28.5878L25.053 28.3322L25.0223 28.0767L24.9916 27.853L24.9302 27.6294L24.8689 27.4057L24.8075 27.214L24.7155 27.0223L24.6541 26.8307L24.5621 26.639L24.47 26.4792L24.378 26.3195L24.2859 26.1597L24.1939 26.0319L24.0712 25.8722L23.9485 25.7444L23.8564 25.6166L23.7337 25.5208L23.611 25.393L23.4576 25.2971L23.3348 25.1693L23.0587 24.9776L22.7826 24.8179L22.4758 24.6262L22.169 24.4664L21.5554 24.1789L20.2668 23.5719L19.9293 23.4121L19.6225 23.2204L19.3157 23.0287L19.0089 22.8051L18.7327 22.5815L18.4259 22.2939L18.3032 22.1661L18.1805 22.0064L18.0271 21.8786L17.9044 21.6869L17.843 21.5591L17.8123 21.4313L17.751 21.3035L17.7203 21.1757L17.6896 21.0479V20.9521V20.8882V20.8243L17.6589 20.7604L17.6896 20.7284V20.6645V20.6326V20.5687V20.5367L17.7203 20.4728V20.4409V20.377L17.751 20.345V20.3131L17.7816 20.2492V20.2172L17.8123 20.1853L17.843 20.1533V20.0895L17.8737 20.0575L17.9044 20.0256L17.9657 19.9617L17.9964 19.8978L18.0578 19.8339L18.1191 19.8019L18.1805 19.738L18.2418 19.7061L18.3032 19.6741L18.3646 19.6102L18.4566 19.5783L18.518 19.5463H18.5793L18.6407 19.5144L18.7021 19.4824H18.7634H18.8248H18.8861H19.0395H19.1929L19.3464 19.5144H19.4691L19.5918 19.5463L19.6225 19.5783L19.6838 19.6102H19.7452L19.7759 19.6422L19.8372 19.6741H19.8679L19.9293 19.7061L19.96 19.738L19.9906 19.77L20.0213 19.8019L20.052 19.8339L20.0827 19.8658L20.1134 19.8978L20.1441 19.9297L20.1747 19.9617L20.2054 19.9936V20.0256L20.2361 20.0895L20.2668 20.1214V20.1533L20.2975 20.2172V20.2492L20.3281 20.345L20.3588 20.4409V20.5367L20.3895 20.6326V20.8562V21.0799L20.3588 22.1342H24.7768V19.6422V19.5144V19.3866L24.7462 19.2588V19.131L24.7155 19.0032L24.6848 18.8754L24.6541 18.7795L24.6234 18.6518L24.5621 18.5559L24.5314 18.4281L24.47 18.3323L24.4394 18.2364L24.378 18.1406L24.3166 18.0447L24.2553 17.9489L24.1939 17.853L24.1019 17.7572L24.0405 17.6933L23.9485 17.5974L23.8871 17.5016L23.703 17.3738L23.5189 17.2141L23.3348 17.0863L23.1201 16.9585L22.9053 16.8626L22.6906 16.7348L22.4758 16.639L22.2303 16.5431L21.7394 16.4153L21.2486 16.2875L20.727 16.1597L20.2361 16.0958L19.7145 16.032L18.7327 16Z" fill="#28003E"/>
<path d="M135.227 36H135.78H136.301L136.792 35.968L137.222 35.9041L137.651 35.8402L138.019 35.7444L138.203 35.6805L138.357 35.6166L138.51 35.5527L138.694 35.4888L138.817 35.4249L138.97 35.3291L139.093 35.2652L139.216 35.1693L139.339 35.0735L139.461 35.0096L139.553 34.9137L139.676 34.8179L139.768 34.722L139.86 34.5942L139.922 34.4984L140.014 34.4025L140.075 34.2747L140.167 34.1789L140.228 34.0511L140.29 33.9552L140.32 33.8275L140.382 33.7316L140.474 33.476L140.535 33.2524L140.597 32.9968L140.658 32.7412L140.689 32.4856L140.719 32.262V32.0064L140.75 31.5271V31.0799V30.2811V25.361H135.013V27.9808H136.179V31.0799V31.1438V31.2076V31.2715L136.148 31.3354V31.3993L136.117 31.4632V31.5271L136.086 31.5591L136.056 31.623L136.025 31.6869L135.994 31.7508L135.964 31.7827L135.933 31.8466L135.902 31.9105L135.872 31.9425L135.81 31.9744L135.78 32.0383L135.718 32.0703L135.688 32.1022L135.626 32.1342L135.596 32.1661L135.534 32.1981L135.473 32.23L135.412 32.262L135.35 32.2939L135.319 32.3259H135.258L135.197 32.3578H135.135H135.074H135.013H134.921H134.859H134.798H134.737H134.675L134.614 32.3259H134.552L134.491 32.2939L134.46 32.262L134.399 32.23L134.338 32.1981L134.276 32.1661L134.246 32.1342L134.184 32.1022L134.154 32.0703L134.092 32.0383L134.062 31.9744L134 31.9425L133.97 31.9105L133.939 31.8466L133.908 31.7827L133.877 31.7508L133.847 31.6869L133.816 31.623L133.785 31.5591L133.755 31.5271V31.4632L133.724 31.3993V31.3354L133.693 31.2715V31.2076V31.1438V31.0799V20.984V20.9201V20.8562V20.7923L133.724 20.7284V20.6645L133.755 20.6006V20.5367L133.785 20.4728L133.816 20.4089L133.847 20.377L133.877 20.3131L133.908 20.2492L133.939 20.2172L133.97 20.1534L134 20.1214L134.062 20.0575L134.092 20.0256L134.154 19.9936L134.184 19.9297L134.246 19.8978L134.276 19.8658L134.338 19.8339L134.399 19.8019H134.46L134.491 19.77L134.552 19.738H134.614L134.675 19.7061H134.737H134.798L134.859 19.6741H134.921H135.013L135.074 19.7061H135.135H135.197L135.258 19.738H135.319L135.35 19.77L135.412 19.8019H135.473L135.534 19.8339L135.596 19.8658L135.626 19.8978L135.688 19.9297L135.718 19.9936L135.78 20.0256L135.81 20.0575L135.872 20.1214L135.902 20.1534L135.933 20.2172L135.964 20.2492L135.994 20.3131L136.025 20.377L136.056 20.4089L136.086 20.4728L136.117 20.5367V20.6006L136.148 20.6645V20.7284L136.179 20.7923V20.8562V20.9201V20.984V22.6454H140.75V20.6006L140.719 20.3131V20.2172L140.689 20.0895V19.9617L140.658 19.8339L140.627 19.7061L140.597 19.6102L140.566 19.4824L140.535 19.3866L140.504 19.2588L140.443 19.1629L140.382 19.0351L140.351 18.9393L140.228 18.7476L140.106 18.5559L139.952 18.3642L139.83 18.1725L139.645 18.0128L139.492 17.853L139.308 17.6933L139.093 17.5655L138.909 17.4058L138.694 17.278L138.48 17.1821L138.265 17.0543L138.019 16.9585L137.774 16.8626L137.528 16.7668L137.038 16.607L136.516 16.5112L135.964 16.4153L135.412 16.3834L134.89 16.3514H134.338L133.785 16.4153L133.264 16.4792L132.742 16.607L132.221 16.7668L131.975 16.8307L131.73 16.9265L131.515 17.0224L131.27 17.1502L131.055 17.246L130.84 17.3738L130.656 17.5335L130.472 17.6613L130.288 17.8211L130.104 17.9808L129.95 18.1406L129.797 18.3003L129.644 18.492L129.521 18.6837L129.398 18.8754L129.367 19.0032L129.306 19.099L129.275 19.1949L129.214 19.3227L129.183 19.4185L129.153 19.5463L129.122 19.6422L129.091 19.77L129.061 19.8978V19.9936L129.03 20.1214V20.2492V20.5048V31.8466V32.0383V32.1981V32.3578L129.061 32.5175L129.091 32.6773L129.122 32.8051L129.153 32.9648L129.183 33.0926L129.214 33.2524L129.275 33.3802L129.337 33.508L129.367 33.6358L129.429 33.7316L129.521 33.8594L129.582 33.9872L129.644 34.083L129.736 34.1789L129.797 34.2747L129.889 34.3706L129.981 34.4664L130.073 34.5623L130.165 34.6581L130.349 34.8179L130.564 34.9776L130.779 35.1054L130.993 35.2332L131.239 35.361L131.484 35.4568L131.73 35.5527L131.975 35.6166L132.221 35.7124L132.742 35.8083L133.264 35.9041L133.785 35.968L134.307 36H134.767H135.227Z" fill="#28003E"/>
</svg>
