<svg width="53" height="52" viewBox="0 0 53 52" fill="none" xmlns="http://www.w3.org/2000/svg">
<path d="M35.9516 35.999C35.8457 35.9983 35.7443 35.9559 35.6694 35.8809C35.5945 35.806 35.552 35.7046 35.5513 35.5987V16.4003C35.552 16.2944 35.5945 16.193 35.6694 16.1181C35.7443 16.0432 35.8457 16.0008 35.9516 16H40.5902C40.6436 15.9989 40.6966 16.0084 40.7463 16.028C40.7959 16.0476 40.8412 16.0769 40.8794 16.1141C40.9176 16.1514 40.948 16.1959 40.9689 16.245C40.9897 16.2942 41.0006 16.347 41.0008 16.4003V35.5987C41.0008 35.8237 40.8152 36.0037 40.5902 35.999H35.9516ZM28.1735 35.999C28.1735 35.999 27.8022 35.8865 27.8022 35.5987V23.8119C27.8136 23.4444 27.7506 23.0784 27.6169 22.7359C27.4833 22.3933 27.2818 22.0814 27.0245 21.8187C26.7673 21.556 26.4596 21.348 26.1199 21.2072C25.7802 21.0665 25.4156 20.9958 25.0479 20.9995H16.3764C15.8739 20.9995 16.0004 21.3755 16.0004 21.3755V35.5987C16.0004 35.9353 15.6245 35.999 15.6245 35.999H11.4106C11.3572 36.0001 11.3042 35.9906 11.2545 35.971C11.2049 35.9514 11.1596 35.9221 11.1214 35.8849C11.0832 35.8476 11.0528 35.8031 11.0319 35.754C11.0111 35.7049 11.0002 35.6521 11 35.5987V16.4003C11 16.1753 11.1856 15.9953 11.4106 16H27.4891C28.899 16.0106 30.2478 16.5771 31.2426 17.5764C32.2373 18.5757 32.7976 19.9271 32.8017 21.337L32.8111 35.5996C32.8112 35.6522 32.801 35.7044 32.7809 35.753C32.7608 35.8016 32.7313 35.8458 32.6941 35.883C32.6569 35.9202 32.6128 35.9496 32.5641 35.9697C32.5155 35.9898 32.4634 36.0001 32.4108 35.9999L28.1735 35.999ZM19.5506 35.999C19.4509 35.999 19.3553 35.9594 19.2848 35.8889C19.2143 35.8184 19.1747 35.7228 19.1747 35.6231V24.3735C19.1747 24.1682 19.3453 23.9976 19.5506 23.9976H24.2623C24.4676 24.0069 24.6233 24.1738 24.6233 24.3735V35.6231C24.6238 35.6722 24.6145 35.7209 24.5961 35.7664C24.5777 35.812 24.5504 35.8534 24.5159 35.8883C24.4814 35.9233 24.4403 35.9511 24.395 35.97C24.3497 35.989 24.3011 35.9989 24.252 35.999H19.5506Z" fill="#28003E"/>
</svg>
