<svg width="33" height="32" viewBox="0 0 33 32" fill="none" xmlns="http://www.w3.org/2000/svg">
<path d="M22.1625 22.1528C22.0973 22.1524 22.0349 22.1263 21.9888 22.0802C21.9427 22.0341 21.9166 21.9717 21.9161 21.9065V10.0921C21.9166 10.0269 21.9427 9.96451 21.9888 9.91841C22.0349 9.87231 22.0973 9.84621 22.1625 9.84576H25.017C25.0498 9.84507 25.0825 9.85092 25.113 9.86298C25.1436 9.87504 25.1714 9.89305 25.1949 9.91598C25.2184 9.93891 25.2372 9.96629 25.25 9.99653C25.2628 10.0268 25.2695 10.0593 25.2696 10.0921V21.9065C25.2696 22.0449 25.1554 22.1557 25.017 22.1528H22.1625ZM17.3759 22.1528C17.3759 22.1528 17.1474 22.0836 17.1474 21.9065V14.6531C17.1544 14.4269 17.1157 14.2017 17.0334 13.9909C16.9512 13.7801 16.8272 13.5881 16.6689 13.4265C16.5106 13.2648 16.3212 13.1368 16.1122 13.0502C15.9031 12.9636 15.6788 12.9201 15.4525 12.9224H10.1162C9.80693 12.9224 9.88481 13.1537 9.88481 13.1537V21.9065C9.88481 22.1136 9.65348 22.1528 9.65348 22.1528H7.0603C7.02746 22.1535 6.99481 22.1477 6.96426 22.1356C6.93371 22.1235 6.90586 22.1055 6.88234 22.0826C6.85882 22.0597 6.8401 22.0323 6.82727 22.0021C6.81445 21.9718 6.80776 21.9393 6.80762 21.9065V10.0921C6.80762 9.95364 6.92184 9.84287 7.0603 9.84576H16.9548C17.8224 9.85229 18.6524 10.2009 19.2646 10.8158C19.8767 11.4308 20.2215 12.2624 20.2241 13.1301L20.2298 21.9071C20.2299 21.9394 20.2236 21.9715 20.2112 22.0014C20.1989 22.0313 20.1807 22.0585 20.1578 22.0814C20.135 22.1043 20.1078 22.1224 20.0779 22.1348C20.0479 22.1472 20.0159 22.1535 19.9835 22.1534L17.3759 22.1528ZM12.0695 22.1528C12.0082 22.1528 11.9493 22.1284 11.906 22.0851C11.8626 22.0417 11.8382 21.9828 11.8382 21.9215V14.9987C11.8382 14.8723 11.9432 14.7673 12.0695 14.7673H14.9691C15.0954 14.7731 15.1912 14.8758 15.1912 14.9987V21.9215C15.1915 21.9517 15.1858 21.9817 15.1745 22.0097C15.1631 22.0377 15.1463 22.0632 15.1251 22.0847C15.1039 22.1062 15.0786 22.1233 15.0507 22.135C15.0228 22.1467 14.9929 22.1527 14.9627 22.1528H12.0695Z" fill="#28003E"/>
</svg>
