<svg width="86" height="64" viewBox="0 0 86 64" fill="none" xmlns="http://www.w3.org/2000/svg">
<path d="M2.98047 63.7372V45.4341H5.77479L13.72 58.7932H12.2483L20.0631 45.4341H22.8574V63.7372H19.6719V50.4813H20.3519L13.7014 61.6452H12.1738L5.42085 50.4813H6.20326V63.7372H2.98047Z" fill="#28003E"/>
<path d="M36.3259 64.0001C34.9856 64.017 33.6544 63.7749 32.4046 63.2871C31.2471 62.841 30.1872 62.1718 29.2842 61.317C28.4063 60.4737 27.709 59.4585 27.235 58.3337C26.2667 55.927 26.2667 53.2352 27.235 50.8286C27.6994 49.7078 28.3837 48.6931 29.247 47.8453C30.1519 46.9907 31.2111 46.3187 32.3673 45.8658C34.8825 44.9276 37.6482 44.9276 40.1635 45.8658C41.3151 46.3166 42.3686 46.9889 43.2652 47.8453C44.1466 48.6839 44.8473 49.6962 45.3236 50.8192C46.2871 53.2268 46.2871 55.9167 45.3236 58.3243C44.852 59.45 44.1507 60.4632 43.2652 61.2982C42.3703 62.1521 41.316 62.8185 40.1635 63.2589C38.9429 63.7501 37.6403 64.0016 36.3259 64.0001ZM36.3259 61.0168C37.1953 61.0233 38.0581 60.8642 38.8688 60.5477C39.6299 60.2466 40.3188 59.7861 40.89 59.1968C41.4681 58.6156 41.9242 57.9233 42.2313 57.161C42.8766 55.5057 42.8766 53.6659 42.2313 52.0106C41.9222 51.2466 41.4664 50.5516 40.89 49.9655C40.3184 49.3788 39.6294 48.9215 38.8688 48.6239C38.0581 48.3074 37.1953 48.1483 36.3259 48.1549C35.4594 48.1465 34.5993 48.3057 33.7924 48.6239C32.9988 48.916 32.2752 49.3731 31.6687 49.9655C31.0896 50.5512 30.6306 51.2462 30.3181 52.0106C29.9907 52.8271 29.8261 53.7006 29.8338 54.5811C29.8281 55.4615 29.9926 56.3346 30.3181 57.1516C30.6278 57.9176 31.087 58.6131 31.6687 59.1968C32.2399 59.7861 32.9288 60.2466 33.6899 60.5477C34.5114 60.8565 35.3842 61.003 36.2607 60.9792L36.3259 61.0168Z" fill="#28003E"/>
<path d="M49.627 63.7373V45.4341H58.1403C59.8991 45.317 61.6489 45.7707 63.1329 46.7288C63.6764 47.1214 64.1161 47.6422 64.4132 48.2458C64.7104 48.8493 64.8561 49.5171 64.8374 50.1905C64.8747 51.0372 64.6641 51.8763 64.2319 52.6035C63.7997 53.3307 63.1649 53.9139 62.4063 54.2808C61.6446 54.6584 60.8056 54.8512 59.9566 54.8437L60.4224 53.9055C61.3835 53.8849 62.3374 54.077 63.2167 54.4684C63.9987 54.8196 64.6668 55.3853 65.1448 56.1008C65.6438 56.8963 65.8937 57.8246 65.862 58.7651C65.8931 59.4782 65.7445 60.1876 65.4302 60.8273C65.1159 61.467 64.646 62.0162 64.0643 62.4239C62.4513 63.4204 60.5676 63.8799 58.6806 63.7373H49.627ZM53.0081 61.0729H58.457C59.4641 61.1291 60.4677 60.9121 61.3631 60.4444C61.6768 60.2136 61.932 59.9115 62.108 59.5627C62.2839 59.2138 62.3756 58.828 62.3756 58.4368C62.3756 58.0455 62.2839 57.6597 62.108 57.3109C61.932 56.962 61.6768 56.6599 61.3631 56.4291C60.4719 55.9492 59.4657 55.7283 58.457 55.7912H52.7473V53.1456H57.7491C58.72 53.2256 59.6925 53.0133 60.5434 52.5359C60.8483 52.3327 61.0948 52.0524 61.2582 51.7231C61.4217 51.3939 61.4964 51.0271 61.4749 50.6596C61.4909 50.2928 61.4138 49.9281 61.2508 49.5997C61.0878 49.2714 60.8443 48.9904 60.5434 48.7833C59.6987 48.2844 58.727 48.0463 57.7491 48.0984H53.0081V61.0729Z" fill="#28003E"/>
<path d="M72.764 60.8853H83.0098V63.6997H69.3828V45.4341H82.6465V48.2485H72.764V60.8853ZM72.5031 53.0424H81.5381V55.8568H72.5031V53.0424Z" fill="#28003E"/>
<path d="M60.9533 19.8512L51.3129 9.75684L42.9951 17.9093L52.9895 27.6941L60.9533 19.8512Z" fill="#8732C9"/>
<path d="M42.9953 17.9093L34.6775 9.75684L25.0371 19.8512L42.9953 37.5352L52.9897 27.6941L42.9953 17.9093Z" fill="#28003E"/>
<path d="M34.6776 9.75667L24.618 0L0 25.7426L10.0596 35.5086L25.0371 19.8511L34.6496 9.7942L34.6776 9.75667Z" fill="#8732C9"/>
<path d="M51.3135 9.75667L61.3824 0L86.0004 25.7426L75.9315 35.5086L60.9539 19.8511L51.3507 9.7942L51.3135 9.75667Z" fill="#28003E"/>
</svg>
