<svg width="16" height="16" viewBox="0 0 16 16" fill="none" xmlns="http://www.w3.org/2000/svg">
<g id="check-circle">
<g clip-path="url(#clip0_2351_26274)">
<rect width="16" height="16" rx="8" fill="#FDFDFD"/>
<path id="Icon" d="M14.6673 7.38674V8.00007C14.6665 9.43769 14.201 10.8365 13.3402 11.988C12.4794 13.1394 11.2695 13.9817 9.89089 14.3893C8.51227 14.797 7.03882 14.748 5.6903 14.2498C4.34177 13.7516 3.19042 12.8308 2.40796 11.6248C1.6255 10.4188 1.25385 8.99212 1.34844 7.55762C1.44303 6.12312 1.99879 4.75762 2.93284 3.66479C3.86689 2.57195 5.12917 1.81033 6.53144 1.4935C7.93371 1.17668 9.40083 1.32163 10.714 1.90674M14.6673 2.66674L8.00066 9.34007L6.00066 7.34007" stroke="#8732C9" stroke-width="2" stroke-linecap="round" stroke-linejoin="round"/>
</g>
</g>
<defs>
<clipPath id="clip0_2351_26274">
<rect width="16" height="16" rx="8" fill="white"/>
</clipPath>
</defs>
</svg>
